<svg width="310" height="50" viewBox="0 0 310 50" fill="none" xmlns="http://www.w3.org/2000/svg">
<rect width="310" height="50" fill="#F44336"/>
<path d="M31.2188 28.4531H35.8906C35.7969 29.9844 35.375 31.3438 34.625 32.5312C33.8854 33.7188 32.849 34.6458 31.5156 35.3125C30.1927 35.9792 28.599 36.3125 26.7344 36.3125C25.276 36.3125 23.9688 36.0625 22.8125 35.5625C21.6562 35.0521 20.6667 34.3229 19.8438 33.375C19.0312 32.4271 18.4115 31.2812 17.9844 29.9375C17.5573 28.5938 17.3438 27.0885 17.3438 25.4219V23.8438C17.3438 22.1771 17.5625 20.6719 18 19.3281C18.4479 17.974 19.0833 16.8229 19.9062 15.875C20.7396 14.9271 21.7344 14.1979 22.8906 13.6875C24.0469 13.1771 25.3385 12.9219 26.7656 12.9219C28.6615 12.9219 30.2604 13.2656 31.5625 13.9531C32.875 14.6406 33.8906 15.5885 34.6094 16.7969C35.3385 18.0052 35.776 19.3802 35.9219 20.9219H31.2344C31.1823 20.0052 31 19.2292 30.6875 18.5938C30.375 17.9479 29.901 17.4635 29.2656 17.1406C28.6406 16.8073 27.8073 16.6406 26.7656 16.6406C25.9844 16.6406 25.3021 16.7865 24.7188 17.0781C24.1354 17.3698 23.6458 17.8125 23.25 18.4062C22.8542 19 22.5573 19.75 22.3594 20.6562C22.1719 21.5521 22.0781 22.6042 22.0781 23.8125V25.4219C22.0781 26.599 22.1667 27.6354 22.3438 28.5312C22.5208 29.4167 22.7917 30.1667 23.1562 30.7812C23.5312 31.3854 24.0104 31.8438 24.5938 32.1562C25.1875 32.4583 25.901 32.6094 26.7344 32.6094C27.7135 32.6094 28.5208 32.4531 29.1562 32.1406C29.7917 31.8281 30.276 31.3646 30.6094 30.75C30.9531 30.1354 31.1562 29.3698 31.2188 28.4531ZM47.2969 19.0938V36H42.7812V19.0938H47.2969ZM52.7344 19.0938V22.5781H37.4219V19.0938H52.7344ZM63.9062 32.1875V24.6562C63.9062 24.1146 63.8177 23.651 63.6406 23.2656C63.4635 22.8698 63.1875 22.5625 62.8125 22.3438C62.4479 22.125 61.974 22.0156 61.3906 22.0156C60.8906 22.0156 60.4583 22.1042 60.0938 22.2812C59.7292 22.4479 59.4479 22.6927 59.25 23.0156C59.0521 23.3281 58.9531 23.6979 58.9531 24.125H54.4531C54.4531 23.4062 54.6198 22.724 54.9531 22.0781C55.2865 21.4323 55.7708 20.8646 56.4062 20.375C57.0417 19.875 57.7969 19.4844 58.6719 19.2031C59.5573 18.9219 60.5469 18.7812 61.6406 18.7812C62.9531 18.7812 64.1198 19 65.1406 19.4375C66.1615 19.875 66.9635 20.5312 67.5469 21.4062C68.1406 22.2812 68.4375 23.375 68.4375 24.6875V31.9219C68.4375 32.849 68.4948 33.6094 68.6094 34.2031C68.724 34.7865 68.8906 35.2969 69.1094 35.7344V36H64.5625C64.3438 35.5417 64.1771 34.9688 64.0625 34.2812C63.9583 33.5833 63.9062 32.8854 63.9062 32.1875ZM64.5 25.7031L64.5312 28.25H62.0156C61.4219 28.25 60.9062 28.3177 60.4688 28.4531C60.0312 28.5885 59.6719 28.7812 59.3906 29.0312C59.1094 29.2708 58.901 29.5521 58.7656 29.875C58.6406 30.1979 58.5781 30.5521 58.5781 30.9375C58.5781 31.3229 58.6667 31.6719 58.8438 31.9844C59.0208 32.2865 59.276 32.526 59.6094 32.7031C59.9427 32.8698 60.3333 32.9531 60.7812 32.9531C61.4583 32.9531 62.0469 32.8177 62.5469 32.5469C63.0469 32.276 63.4323 31.9427 63.7031 31.5469C63.9844 31.151 64.1302 30.776 64.1406 30.4219L65.3281 32.3281C65.1615 32.7552 64.9323 33.1979 64.6406 33.6562C64.3594 34.1146 64 34.5469 63.5625 34.9531C63.125 35.349 62.599 35.6771 61.9844 35.9375C61.3698 36.1875 60.6406 36.3125 59.7969 36.3125C58.724 36.3125 57.75 36.099 56.875 35.6719C56.0104 35.2344 55.3229 34.6354 54.8125 33.875C54.3125 33.1042 54.0625 32.2292 54.0625 31.25C54.0625 30.3646 54.2292 29.5781 54.5625 28.8906C54.8958 28.2031 55.3854 27.625 56.0312 27.1562C56.6875 26.6771 57.5052 26.3177 58.4844 26.0781C59.4635 25.8281 60.599 25.7031 61.8906 25.7031H64.5ZM83.4844 25.9219V29.4219H74.8906V25.9219H83.4844ZM76.3906 19.0938V36H71.8906V19.0938H76.3906ZM86.5312 19.0938V36H82.0156V19.0938H86.5312ZM94.8281 19.0938V36H90.3281V19.0938H94.8281ZM105.812 19.0938L98.5312 29.6719H94.0312L93.4844 25.5156H96.4688L100.109 19.0938H105.812ZM100.312 36L96.1562 28.8594L100.078 26.6875L106.344 36H100.312ZM106.594 27.7188V27.3906C106.594 26.151 106.771 25.0104 107.125 23.9688C107.479 22.9167 107.995 22.0052 108.672 21.2344C109.349 20.4635 110.182 19.8646 111.172 19.4375C112.161 19 113.297 18.7812 114.578 18.7812C115.859 18.7812 117 19 118 19.4375C119 19.8646 119.839 20.4635 120.516 21.2344C121.203 22.0052 121.724 22.9167 122.078 23.9688C122.432 25.0104 122.609 26.151 122.609 27.3906V27.7188C122.609 28.9479 122.432 30.0885 122.078 31.1406C121.724 32.1823 121.203 33.0938 120.516 33.875C119.839 34.6458 119.005 35.2448 118.016 35.6719C117.026 36.099 115.891 36.3125 114.609 36.3125C113.328 36.3125 112.188 36.099 111.188 35.6719C110.198 35.2448 109.359 34.6458 108.672 33.875C107.995 33.0938 107.479 32.1823 107.125 31.1406C106.771 30.0885 106.594 28.9479 106.594 27.7188ZM111.094 27.3906V27.7188C111.094 28.4271 111.156 29.0885 111.281 29.7031C111.406 30.3177 111.604 30.8594 111.875 31.3281C112.156 31.7865 112.521 32.1458 112.969 32.4062C113.417 32.6667 113.964 32.7969 114.609 32.7969C115.234 32.7969 115.771 32.6667 116.219 32.4062C116.667 32.1458 117.026 31.7865 117.297 31.3281C117.568 30.8594 117.766 30.3177 117.891 29.7031C118.026 29.0885 118.094 28.4271 118.094 27.7188V27.3906C118.094 26.7031 118.026 26.0573 117.891 25.4531C117.766 24.8385 117.562 24.2969 117.281 23.8281C117.01 23.349 116.651 22.974 116.203 22.7031C115.755 22.4323 115.214 22.2969 114.578 22.2969C113.943 22.2969 113.401 22.4323 112.953 22.7031C112.516 22.974 112.156 23.349 111.875 23.8281C111.604 24.2969 111.406 24.8385 111.281 25.4531C111.156 26.0573 111.094 26.7031 111.094 27.3906ZM134.516 27.8906H128.719V24.2344H134.516C135.411 24.2344 136.141 24.0885 136.703 23.7969C137.266 23.4948 137.677 23.0781 137.938 22.5469C138.198 22.0156 138.328 21.4167 138.328 20.75C138.328 20.0729 138.198 19.4427 137.938 18.8594C137.677 18.276 137.266 17.8073 136.703 17.4531C136.141 17.099 135.411 16.9219 134.516 16.9219H130.344V36H125.656V13.25H134.516C136.297 13.25 137.823 13.5729 139.094 14.2188C140.375 14.8542 141.354 15.7344 142.031 16.8594C142.708 17.9844 143.047 19.2708 143.047 20.7188C143.047 22.1875 142.708 23.4583 142.031 24.5312C141.354 25.6042 140.375 26.4323 139.094 27.0156C137.823 27.599 136.297 27.8906 134.516 27.8906ZM153.562 36.3125C152.25 36.3125 151.073 36.1042 150.031 35.6875C148.99 35.2604 148.104 34.6719 147.375 33.9219C146.656 33.1719 146.104 32.3021 145.719 31.3125C145.333 30.3125 145.141 29.25 145.141 28.125V27.5C145.141 26.2188 145.323 25.0469 145.688 23.9844C146.052 22.9219 146.573 22 147.25 21.2188C147.938 20.4375 148.771 19.8385 149.75 19.4219C150.729 18.9948 151.833 18.7812 153.062 18.7812C154.26 18.7812 155.323 18.9792 156.25 19.375C157.177 19.7708 157.953 20.3333 158.578 21.0625C159.214 21.7917 159.693 22.6667 160.016 23.6875C160.339 24.6979 160.5 25.8229 160.5 27.0625V28.9375H147.062V25.9375H156.078V25.5938C156.078 24.9688 155.964 24.4115 155.734 23.9219C155.516 23.4219 155.182 23.026 154.734 22.7344C154.286 22.4427 153.714 22.2969 153.016 22.2969C152.422 22.2969 151.911 22.4271 151.484 22.6875C151.057 22.9479 150.708 23.3125 150.438 23.7812C150.177 24.25 149.979 24.8021 149.844 25.4375C149.719 26.0625 149.656 26.75 149.656 27.5V28.125C149.656 28.8021 149.75 29.4271 149.938 30C150.135 30.5729 150.411 31.0677 150.766 31.4844C151.13 31.901 151.568 32.224 152.078 32.4531C152.599 32.6823 153.188 32.7969 153.844 32.7969C154.656 32.7969 155.411 32.6406 156.109 32.3281C156.818 32.0052 157.427 31.5208 157.938 30.875L160.125 33.25C159.771 33.7604 159.286 34.25 158.672 34.7188C158.068 35.1875 157.339 35.5729 156.484 35.875C155.63 36.1667 154.656 36.3125 153.562 36.3125ZM173.344 30.8281L177.781 19.0938H181.453L174.859 36H171.828L165.266 19.0938H168.938L173.344 30.8281ZM167.859 19.0938V36H163.359V19.0938H167.859ZM178.938 36V19.0938H183.438V36H178.938ZM200.844 28.4531H205.516C205.422 29.9844 205 31.3438 204.25 32.5312C203.51 33.7188 202.474 34.6458 201.141 35.3125C199.818 35.9792 198.224 36.3125 196.359 36.3125C194.901 36.3125 193.594 36.0625 192.438 35.5625C191.281 35.0521 190.292 34.3229 189.469 33.375C188.656 32.4271 188.036 31.2812 187.609 29.9375C187.182 28.5938 186.969 27.0885 186.969 25.4219V23.8438C186.969 22.1771 187.188 20.6719 187.625 19.3281C188.073 17.974 188.708 16.8229 189.531 15.875C190.365 14.9271 191.359 14.1979 192.516 13.6875C193.672 13.1771 194.964 12.9219 196.391 12.9219C198.286 12.9219 199.885 13.2656 201.188 13.9531C202.5 14.6406 203.516 15.5885 204.234 16.7969C204.964 18.0052 205.401 19.3802 205.547 20.9219H200.859C200.807 20.0052 200.625 19.2292 200.312 18.5938C200 17.9479 199.526 17.4635 198.891 17.1406C198.266 16.8073 197.432 16.6406 196.391 16.6406C195.609 16.6406 194.927 16.7865 194.344 17.0781C193.76 17.3698 193.271 17.8125 192.875 18.4062C192.479 19 192.182 19.75 191.984 20.6562C191.797 21.5521 191.703 22.6042 191.703 23.8125V25.4219C191.703 26.599 191.792 27.6354 191.969 28.5312C192.146 29.4167 192.417 30.1667 192.781 30.7812C193.156 31.3854 193.635 31.8438 194.219 32.1562C194.812 32.4583 195.526 32.6094 196.359 32.6094C197.339 32.6094 198.146 32.4531 198.781 32.1406C199.417 31.8281 199.901 31.3646 200.234 30.75C200.578 30.1354 200.781 29.3698 200.844 28.4531ZM216.094 36.3125C214.781 36.3125 213.604 36.1042 212.562 35.6875C211.521 35.2604 210.635 34.6719 209.906 33.9219C209.188 33.1719 208.635 32.3021 208.25 31.3125C207.865 30.3125 207.672 29.25 207.672 28.125V27.5C207.672 26.2188 207.854 25.0469 208.219 23.9844C208.583 22.9219 209.104 22 209.781 21.2188C210.469 20.4375 211.302 19.8385 212.281 19.4219C213.26 18.9948 214.365 18.7812 215.594 18.7812C216.792 18.7812 217.854 18.9792 218.781 19.375C219.708 19.7708 220.484 20.3333 221.109 21.0625C221.745 21.7917 222.224 22.6667 222.547 23.6875C222.87 24.6979 223.031 25.8229 223.031 27.0625V28.9375H209.594V25.9375H218.609V25.5938C218.609 24.9688 218.495 24.4115 218.266 23.9219C218.047 23.4219 217.714 23.026 217.266 22.7344C216.818 22.4427 216.245 22.2969 215.547 22.2969C214.953 22.2969 214.443 22.4271 214.016 22.6875C213.589 22.9479 213.24 23.3125 212.969 23.7812C212.708 24.25 212.51 24.8021 212.375 25.4375C212.25 26.0625 212.188 26.75 212.188 27.5V28.125C212.188 28.8021 212.281 29.4271 212.469 30C212.667 30.5729 212.943 31.0677 213.297 31.4844C213.661 31.901 214.099 32.224 214.609 32.4531C215.13 32.6823 215.719 32.7969 216.375 32.7969C217.188 32.7969 217.943 32.6406 218.641 32.3281C219.349 32.0052 219.958 31.5208 220.469 30.875L222.656 33.25C222.302 33.7604 221.818 34.25 221.203 34.7188C220.599 35.1875 219.87 35.5729 219.016 35.875C218.161 36.1667 217.188 36.3125 216.094 36.3125ZM230.094 22.3438V42.5H225.594V19.0938H229.766L230.094 22.3438ZM240.797 27.3594V27.6875C240.797 28.9167 240.651 30.0573 240.359 31.1094C240.078 32.1615 239.661 33.0781 239.109 33.8594C238.557 34.6302 237.87 35.2344 237.047 35.6719C236.234 36.099 235.297 36.3125 234.234 36.3125C233.203 36.3125 232.307 36.1042 231.547 35.6875C230.786 35.2708 230.146 34.6875 229.625 33.9375C229.115 33.1771 228.703 32.2969 228.391 31.2969C228.078 30.2969 227.839 29.224 227.672 28.0781V27.2188C227.839 25.9896 228.078 24.8646 228.391 23.8438C228.703 22.8125 229.115 21.9219 229.625 21.1719C230.146 20.4115 230.781 19.8229 231.531 19.4062C232.292 18.9896 233.182 18.7812 234.203 18.7812C235.276 18.7812 236.219 18.9844 237.031 19.3906C237.854 19.7969 238.542 20.3802 239.094 21.1406C239.656 21.901 240.078 22.8073 240.359 23.8594C240.651 24.9115 240.797 26.0781 240.797 27.3594ZM236.281 27.6875V27.3594C236.281 26.6406 236.219 25.9792 236.094 25.375C235.979 24.7604 235.792 24.224 235.531 23.7656C235.281 23.3073 234.948 22.9531 234.531 22.7031C234.125 22.4427 233.63 22.3125 233.047 22.3125C232.432 22.3125 231.906 22.4115 231.469 22.6094C231.042 22.8073 230.693 23.0938 230.422 23.4688C230.151 23.8438 229.948 24.2917 229.812 24.8125C229.677 25.3333 229.594 25.9219 229.562 26.5781V28.75C229.615 29.5208 229.76 30.2135 230 30.8281C230.24 31.4323 230.609 31.9115 231.109 32.2656C231.609 32.6198 232.266 32.7969 233.078 32.7969C233.672 32.7969 234.172 32.6667 234.578 32.4062C234.984 32.1354 235.312 31.7656 235.562 31.2969C235.823 30.8281 236.005 30.2865 236.109 29.6719C236.224 29.0573 236.281 28.3958 236.281 27.6875ZM252.016 28.9375H246.719L246.688 25.9844H251.062C251.646 25.9844 252.12 25.9271 252.484 25.8125C252.849 25.6875 253.115 25.5052 253.281 25.2656C253.458 25.0156 253.547 24.7135 253.547 24.3594C253.547 24.0469 253.49 23.7812 253.375 23.5625C253.271 23.3333 253.109 23.1458 252.891 23C252.672 22.8542 252.396 22.75 252.062 22.6875C251.74 22.6146 251.359 22.5781 250.922 22.5781H248.391V36H243.891V19.0938H250.922C252.026 19.0938 253.016 19.1927 253.891 19.3906C254.766 19.5781 255.51 19.8646 256.125 20.25C256.75 20.6354 257.224 21.125 257.547 21.7188C257.88 22.3021 258.047 22.9948 258.047 23.7969C258.047 24.3177 257.927 24.8073 257.688 25.2656C257.458 25.724 257.115 26.1302 256.656 26.4844C256.198 26.8385 255.63 27.1302 254.953 27.3594C254.286 27.5781 253.516 27.7135 252.641 27.7656L252.016 28.9375ZM252.016 36H245.609L247.156 32.5156H252.016C252.568 32.5156 253.021 32.4479 253.375 32.3125C253.729 32.1771 253.99 31.9792 254.156 31.7188C254.333 31.4479 254.422 31.125 254.422 30.75C254.422 30.3854 254.344 30.0677 254.188 29.7969C254.031 29.526 253.776 29.3177 253.422 29.1719C253.078 29.0156 252.609 28.9375 252.016 28.9375H247.812L247.844 25.9844H252.625L253.719 27.1719C254.906 27.2448 255.885 27.4688 256.656 27.8438C257.427 28.2188 257.995 28.6979 258.359 29.2812C258.734 29.8542 258.922 30.4844 258.922 31.1719C258.922 31.974 258.771 32.6771 258.469 33.2812C258.167 33.8854 257.719 34.3906 257.125 34.7969C256.542 35.1927 255.823 35.4948 254.969 35.7031C254.115 35.901 253.13 36 252.016 36ZM266.172 29.7188L271.844 19.0938H276.344V36H271.844V25.3594L266.172 36H261.672V19.0938H266.172V29.7188ZM286.797 32.7969C287.349 32.7969 287.839 32.6927 288.266 32.4844C288.693 32.2656 289.026 31.9635 289.266 31.5781C289.516 31.1823 289.646 30.7188 289.656 30.1875H293.891C293.88 31.375 293.562 32.4323 292.938 33.3594C292.312 34.276 291.474 35 290.422 35.5312C289.37 36.0521 288.193 36.3125 286.891 36.3125C285.578 36.3125 284.432 36.0938 283.453 35.6562C282.484 35.2188 281.677 34.6146 281.031 33.8438C280.385 33.0625 279.901 32.1562 279.578 31.125C279.255 30.0833 279.094 28.9688 279.094 27.7812V27.3281C279.094 26.1302 279.255 25.0156 279.578 23.9844C279.901 22.9427 280.385 22.0365 281.031 21.2656C281.677 20.4844 282.484 19.875 283.453 19.4375C284.422 19 285.557 18.7812 286.859 18.7812C288.245 18.7812 289.458 19.0469 290.5 19.5781C291.552 20.1094 292.375 20.8698 292.969 21.8594C293.573 22.8385 293.88 24 293.891 25.3438H289.656C289.646 24.7812 289.526 24.2708 289.297 23.8125C289.078 23.3542 288.755 22.9896 288.328 22.7188C287.911 22.4375 287.396 22.2969 286.781 22.2969C286.125 22.2969 285.589 22.4375 285.172 22.7188C284.755 22.9896 284.432 23.3646 284.203 23.8438C283.974 24.3125 283.812 24.849 283.719 25.4531C283.635 26.0469 283.594 26.6719 283.594 27.3281V27.7812C283.594 28.4375 283.635 29.0677 283.719 29.6719C283.802 30.276 283.958 30.8125 284.188 31.2812C284.427 31.75 284.755 32.1198 285.172 32.3906C285.589 32.6615 286.13 32.7969 286.797 32.7969Z" fill="white"/>
</svg>